<svg xmlns="http://www.w3.org/2000/svg" style="display:none">
  <defs>
    <symbol id="i-mail" viewBox="0 0 24 24"><rect x="3" y="5" width="18" height="14" rx="2"/><path d="m3 7 9 6 9-6"/></symbol>
    <symbol id="i-gavel" viewBox="0 0 24 24"><path d="m14 13-7.5 7.5a2.12 2.12 0 0 1-3-3L11 10"/><path d="m16 16 6-6"/><path d="m8 8 6-6"/><path d="m9 7 8 8"/><path d="m21 11-8-8"/></symbol>
    <symbol id="i-presentation" viewBox="0 0 24 24"><path d="M2 3h20"/><path d="M21 3v11a2 2 0 0 1-2 2H5a2 2 0 0 1-2-2V3"/><path d="m7 21 5-5 5 5"/></symbol>
    <symbol id="i-chart" viewBox="0 0 24 24"><path d="M3 3v18h18"/><path d="M7 15v-4"/><path d="M12 15V8"/><path d="M17 15v-7"/></symbol>
    <symbol id="i-megaphone" viewBox="0 0 24 24"><path d="m3 11 18-5v12L3 14v-3z"/><path d="M11.6 16.8a3 3 0 1 1-5.8-1.6"/></symbol>
    <symbol id="i-calendar" viewBox="0 0 24 24"><rect x="3" y="4" width="18" height="18" rx="2"/><path d="M16 2v4M8 2v4M3 10h18"/><path d="M8 14h.01M12 14h.01M16 14h.01M8 18h.01M12 18h.01"/></symbol>
    <symbol id="i-ticket" viewBox="0 0 24 24"><path d="M2 9a3 3 0 0 1 0 6v2a2 2 0 0 0 2 2h16a2 2 0 0 0 2-2v-2a3 3 0 0 1 0-6V7a2 2 0 0 0-2-2H4a2 2 0 0 0-2 2Z"/><path d="M13 5v2M13 17v2M13 11v2"/></symbol>
    <symbol id="i-clipboard" viewBox="0 0 24 24"><rect x="8" y="2" width="8" height="4" rx="1"/><path d="M16 4h2a2 2 0 0 1 2 2v14a2 2 0 0 1-2 2H6a2 2 0 0 1-2-2V6a2 2 0 0 1 2-2h2"/><path d="M9 12h6M9 16h4"/></symbol>
    <symbol id="i-sparkles" viewBox="0 0 24 24"><path d="M9.94 14.06 8 20l-1.94-5.94L0 12l6.06-1.94L8 4l1.94 6.06L16 12z" transform="translate(2 0) scale(.92)"/><path d="M19 3v4M17 5h4M19 17v4M17 19h4"/></symbol>
    <symbol id="i-file" viewBox="0 0 24 24"><path d="M14 2H6a2 2 0 0 0-2 2v16a2 2 0 0 0 2 2h12a2 2 0 0 0 2-2V8z"/><path d="M14 2v6h6M16 13H8M16 17H8M10 9H8"/></symbol>
    <symbol id="i-check" viewBox="0 0 24 24"><path d="M20 6 9 17l-5-5"/></symbol>
    <symbol id="i-check-circle" viewBox="0 0 24 24"><circle cx="12" cy="12" r="10"/><path d="m9 12 2 2 4-4"/></symbol>
    <symbol id="i-x" viewBox="0 0 24 24"><path d="M18 6 6 18M6 6l12 12"/></symbol>
    <symbol id="i-menu" viewBox="0 0 24 24"><path d="M4 6h16M4 12h16M4 18h16"/></symbol>
    <symbol id="i-sun" viewBox="0 0 24 24"><circle cx="12" cy="12" r="4"/><path d="M12 2v2M12 20v2M4.93 4.93l1.41 1.41M17.66 17.66l1.41 1.41M2 12h2M20 12h2M6.34 17.66l-1.41 1.41M19.07 4.93l-1.41 1.41"/></symbol>
    <symbol id="i-moon" viewBox="0 0 24 24"><path d="M12 3a6 6 0 0 0 9 9 9 9 0 1 1-9-9Z"/></symbol>
    <symbol id="i-arrow-right" viewBox="0 0 24 24"><path d="M5 12h14M12 5l7 7-7 7"/></symbol>
    <symbol id="i-download" viewBox="0 0 24 24"><path d="M21 15v4a2 2 0 0 1-2 2H5a2 2 0 0 1-2-2v-4"/><path d="m7 10 5 5 5-5M12 15V3"/></symbol>
    <symbol id="i-printer" viewBox="0 0 24 24"><path d="M6 9V2h12v7"/><path d="M6 18H4a2 2 0 0 1-2-2v-5a2 2 0 0 1 2-2h16a2 2 0 0 1 2 2v5a2 2 0 0 1-2 2h-2"/><rect x="6" y="14" width="12" height="8"/></symbol>
    <symbol id="i-copy" viewBox="0 0 24 24"><rect x="9" y="9" width="13" height="13" rx="2"/><path d="M5 15H4a2 2 0 0 1-2-2V4a2 2 0 0 1 2-2h9a2 2 0 0 1 2 2v1"/></symbol>
    <symbol id="i-save" viewBox="0 0 24 24"><path d="M19 21H5a2 2 0 0 1-2-2V5a2 2 0 0 1 2-2h11l5 5v11a2 2 0 0 1-2 2z"/><path d="M17 21v-8H7v8M7 3v5h8"/></symbol>
    <symbol id="i-star" viewBox="0 0 24 24"><path d="m12 2 3.09 6.26L22 9.27l-5 4.87 1.18 6.88L12 17.77l-6.18 3.25L7 14.14 2 9.27l6.91-1.01z"/></symbol>
    <symbol id="i-trash" viewBox="0 0 24 24"><path d="M3 6h18M19 6v14a2 2 0 0 1-2 2H7a2 2 0 0 1-2-2V6M8 6V4a2 2 0 0 1 2-2h4a2 2 0 0 1 2 2v2"/></symbol>
    <symbol id="i-search" viewBox="0 0 24 24"><circle cx="11" cy="11" r="8"/><path d="m21 21-4.3-4.3"/></symbol>
    <symbol id="i-upload" viewBox="0 0 24 24"><path d="M21 15v4a2 2 0 0 1-2 2H5a2 2 0 0 1-2-2v-4"/><path d="m17 8-5-5-5 5M12 3v12"/></symbol>
    <symbol id="i-send" viewBox="0 0 24 24"><path d="m22 2-7 20-4-9-9-4z"/><path d="M22 2 11 13"/></symbol>
    <symbol id="i-stop" viewBox="0 0 24 24"><rect x="6" y="6" width="12" height="12" rx="2"/></symbol>
    <symbol id="i-settings" viewBox="0 0 24 24"><path d="M12.22 2h-.44a2 2 0 0 0-2 2v.18a2 2 0 0 1-1 1.73l-.43.25a2 2 0 0 1-2 0l-.15-.08a2 2 0 0 0-2.73.73l-.22.38a2 2 0 0 0 .73 2.73l.15.1a2 2 0 0 1 1 1.72v.51a2 2 0 0 1-1 1.74l-.15.09a2 2 0 0 0-.73 2.73l.22.38a2 2 0 0 0 2.73.73l.15-.08a2 2 0 0 1 2 0l.43.25a2 2 0 0 1 1 1.73V20a2 2 0 0 0 2 2h.44a2 2 0 0 0 2-2v-.18a2 2 0 0 1 1-1.73l.43-.25a2 2 0 0 1 2 0l.15.08a2 2 0 0 0 2.73-.73l.22-.39a2 2 0 0 0-.73-2.73l-.15-.08a2 2 0 0 1-1-1.74v-.5a2 2 0 0 1 1-1.74l.15-.09a2 2 0 0 0 .73-2.73l-.22-.38a2 2 0 0 0-2.73-.73l-.15.08a2 2 0 0 1-2 0l-.43-.25a2 2 0 0 1-1-1.73V4a2 2 0 0 0-2-2z"/><circle cx="12" cy="12" r="3"/></symbol>
    <symbol id="i-user" viewBox="0 0 24 24"><circle cx="12" cy="8" r="4"/><path d="M4 21a8 8 0 0 1 16 0"/></symbol>
    <symbol id="i-logout" viewBox="0 0 24 24"><path d="M9 21H5a2 2 0 0 1-2-2V5a2 2 0 0 1 2-2h4M16 17l5-5-5-5M21 12H9"/></symbol>
    <symbol id="i-shield" viewBox="0 0 24 24"><path d="M12 22s8-4 8-10V5l-8-3-8 3v7c0 6 8 10 8 10z"/><path d="m9 12 2 2 4-4"/></symbol>
    <symbol id="i-zap" viewBox="0 0 24 24"><path d="M13 2 3 14h9l-1 8 10-12h-9z"/></symbol>
    <symbol id="i-clock" viewBox="0 0 24 24"><circle cx="12" cy="12" r="10"/><path d="M12 6v6l4 2"/></symbol>
    <symbol id="i-layers" viewBox="0 0 24 24"><path d="m12 2 10 5-10 5L2 7z"/><path d="m2 17 10 5 10-5M2 12l10 5 10-5"/></symbol>
    <symbol id="i-book" viewBox="0 0 24 24"><path d="M4 19.5A2.5 2.5 0 0 1 6.5 17H20V2H6.5A2.5 2.5 0 0 0 4 4.5z"/><path d="M4 19.5A2.5 2.5 0 0 0 6.5 22H20v-5"/></symbol>
    <symbol id="i-spell" viewBox="0 0 24 24"><path d="m6 16 6-12 6 12M8 12h8"/><path d="m16 20 2 2 4-4"/></symbol>
    <symbol id="i-hash" viewBox="0 0 24 24"><path d="M4 9h16M4 15h16M10 3 8 21M16 3l-2 18"/></symbol>
    <symbol id="i-message" viewBox="0 0 24 24"><path d="M21 15a2 2 0 0 1-2 2H7l-4 4V5a2 2 0 0 1 2-2h14a2 2 0 0 1 2 2z"/><path d="M8 9h8M8 13h5"/></symbol>
    <symbol id="i-home" viewBox="0 0 24 24"><path d="m3 10 9-7 9 7v10a2 2 0 0 1-2 2H5a2 2 0 0 1-2-2z"/><path d="M9 22V12h6v10"/></symbol>
    <symbol id="i-folder" viewBox="0 0 24 24"><path d="M4 20h16a2 2 0 0 0 2-2V8a2 2 0 0 0-2-2h-7.93a2 2 0 0 1-1.66-.9l-.82-1.2A2 2 0 0 0 7.93 3H4a2 2 0 0 0-2 2v13c0 1.1.9 2 2 2Z"/></symbol>
    <symbol id="i-plus" viewBox="0 0 24 24"><path d="M12 5v14M5 12h14"/></symbol>
    <symbol id="i-chevron-down" viewBox="0 0 24 24"><path d="m6 9 6 6 6-6"/></symbol>
    <symbol id="i-chevron-left" viewBox="0 0 24 24"><path d="m15 18-6-6 6-6"/></symbol>
    <symbol id="i-lock" viewBox="0 0 24 24"><rect x="3" y="11" width="18" height="11" rx="2"/><path d="M7 11V7a5 5 0 0 1 10 0v4"/></symbol>
    <symbol id="i-wand" viewBox="0 0 24 24"><path d="m15 4-1 1M19 8l-1 1M18 3v2M21 6h-2M3 21 14 10"/><path d="m12.5 7.5 4 4"/></symbol>
    <symbol id="i-eye" viewBox="0 0 24 24"><path d="M2 12s3-7 10-7 10 7 10 7-3 7-10 7S2 12 2 12z"/><circle cx="12" cy="12" r="3"/></symbol>
    <symbol id="i-refresh" viewBox="0 0 24 24"><path d="M21 12a9 9 0 0 1-15.5 6.2L3 16M3 12a9 9 0 0 1 15.5-6.2L21 8"/><path d="M21 3v5h-5M3 21v-5h5"/></symbol>
    <symbol id="i-key" viewBox="0 0 24 24"><circle cx="7.5" cy="15.5" r="5.5"/><path d="m21 2-9.6 9.6M15.5 7.5l3 3L22 7l-3-3"/></symbol>
    <symbol id="i-info" viewBox="0 0 24 24"><circle cx="12" cy="12" r="10"/><path d="M12 16v-4M12 8h.01"/></symbol>
    <symbol id="i-alert" viewBox="0 0 24 24"><path d="m21.73 18-8-14a2 2 0 0 0-3.48 0l-8 14A2 2 0 0 0 4 21h16a2 2 0 0 0 1.73-3z"/><path d="M12 9v4M12 17h.01"/></symbol>
    <symbol id="i-quote" viewBox="0 0 24 24"><path d="M3 21c3 0 7-1 7-8V5c0-1.25-.76-2-2-2H4c-1.25 0-2 .75-2 2v6c0 1.25.75 2 2 2h3c0 4-2 6-4 6M14 21c3 0 7-1 7-8V5c0-1.25-.76-2-2-2h-4c-1.25 0-2 .75-2 2v6c0 1.25.75 2 2 2h3c0 4-2 6-4 6"/></symbol>
    <symbol id="i-command" viewBox="0 0 24 24"><path d="M15 6v12a3 3 0 1 0 3-3H6a3 3 0 1 0 3 3V6a3 3 0 1 0-3 3h12a3 3 0 1 0-3-3"/></symbol>
    <symbol id="i-zoom-in" viewBox="0 0 24 24"><circle cx="11" cy="11" r="8"/><path d="m21 21-4.3-4.3M11 8v6M8 11h6"/></symbol>
    <symbol id="i-zoom-out" viewBox="0 0 24 24"><circle cx="11" cy="11" r="8"/><path d="m21 21-4.3-4.3M8 11h6"/></symbol>
    <symbol id="i-panel" viewBox="0 0 24 24"><rect x="3" y="3" width="18" height="18" rx="2"/><path d="M9 3v18"/></symbol>
    <symbol id="i-building" viewBox="0 0 24 24"><rect x="4" y="2" width="16" height="20" rx="2"/><path d="M9 22v-4h6v4M8 6h.01M16 6h.01M12 6h.01M12 10h.01M12 14h.01M16 10h.01M16 14h.01M8 10h.01M8 14h.01"/></symbol>
    <symbol id="i-phone" viewBox="0 0 24 24"><path d="M22 16.92v3a2 2 0 0 1-2.18 2 19.8 19.8 0 0 1-8.63-3.07 19.5 19.5 0 0 1-6-6A19.8 19.8 0 0 1 2.12 4.18 2 2 0 0 1 4.11 2h3a2 2 0 0 1 2 1.72c.13.96.36 1.9.7 2.81a2 2 0 0 1-.45 2.11L8.09 9.91a16 16 0 0 0 6 6l1.27-1.27a2 2 0 0 1 2.11-.45c.91.34 1.85.57 2.81.7A2 2 0 0 1 22 16.92z"/></symbol>
  </defs>
</svg>
